# xmcd
#
# Track frame offsets: 
#        150
#        15382
#        32545
#        41485
#        51739
#        66245
#        84109
#        101554
#        117419
#        134754
#        148654
#        166818
#        184135
#        203958
#        222430
#        236004
#
# Disc length: 3273 seconds
#
# Revision: 0
# Processed by: cddbd v1.5.2PL0 Copyright (c) Steve Scherf et al.
# Submitted via: ExactAudioCopy v0.95b4
#
DISCID=e90cc710
DTITLE=Brad Keeler with Kim Roque - Songs That You Don't Hear On The R
DTITLE=adio
DYEAR=1999
DGENRE=Blues
TTITLE0=Memphis Bound
TTITLE1=Lost and Lonely Blues
TTITLE2=Down Yonder
TTITLE3=Railroad Bill's Rag
TTITLE4=Soldier's Joy - Arkansas Traveler
TTITLE5=Pallet on Your Floor
TTITLE6=Deep Elum Blues
TTITLE7='Til the Mail Train Comes
TTITLE8=King of the Fairies - Pretty Little Dog
TTITLE9=King Edward Blues
TTITLE10=Rag Doll Rag
TTITLE11=Worried Mind Blues
TTITLE12=Since You've Been Gone
TTITLE13=Around the Horn - Paddy on the Turnpike
TTITLE14=You Don't Know My Mind
TTITLE15=Wildwood Flower
EXTD=
EXTT0=
EXTT1=
EXTT2=
EXTT3=
EXTT4=
EXTT5=
EXTT6=
EXTT7=
EXTT8=
EXTT9=
EXTT10=
EXTT11=
EXTT12=
EXTT13=
EXTT14=
EXTT15=
PLAYORDER=
